<svg id="Layer_1" data-name="Layer 1" xmlns="http://www.w3.org/2000/svg" viewBox="0 0 313.07 49.54">
  <defs>
    <style>
      .cls-1 {
        fill: #11181e;
      }
    </style>
  </defs>
  <title>gronadelogo2</title>
  <g>
    <path class="cls-1" d="M38.16,19.94c-3.08-2.66-7.43-3.78-11.49-3.78-10.16,0-18.5,7.5-18.5,19.41s8.69,19,19.2,19a22.07,22.07,0,0,0,10-2V38.85H39.7V53.91a25.28,25.28,0,0,1-12.33,2.8C14.9,56.72,5.79,48,5.79,35.56S14.76,14,26.67,14a20.52,20.52,0,0,1,11.49,3.15Z" transform="translate(-5.79 -7.69)"/>
    <path class="cls-1" d="M54.6,56.16H52.22V14.61A34.67,34.67,0,0,1,58.38,14C68.26,14,74,18.18,74,26.38c0,7-4.41,11.14-10,12.26l15.2,17.51H76.1l-14.64-17H54.6Zm0-19.05h5c7.22,0,11.91-3.71,11.91-10.72,0-6.8-4.9-10.37-13.1-10.37a31.06,31.06,0,0,0-3.78.28Z" transform="translate(-5.79 -7.69)"/>
    <polygon class="cls-1" points="167.35 45.03 167.35 6.85 169.66 6.85 169.66 48.46 167.28 48.46 139.68 10.28 139.68 48.46 137.36 48.46 137.36 6.85 139.74 6.85 167.35 45.03"/>
    <path class="cls-1" d="M192.41,43.55l-4.83,12.61h-2.45l16.32-41.61h2.87l16.46,41.61h-2.45l-5-12.61Zm10.37-26.83-9.53,24.73h19.27Z" transform="translate(-5.79 -7.69)"/>
    <path class="cls-1" d="M229.89,14.47a62.24,62.24,0,0,1,7-.42c18.43,0,25.92,8.55,25.92,20.53,0,12.68-7.5,22.07-24.87,22.07a61.37,61.37,0,0,1-8.06-.56Zm2.38,39.72a48.28,48.28,0,0,0,5.67.35c14.15,0,22.49-6.73,22.49-20,0-11.35-7.57-18.43-23.54-18.43-1.54,0-2.87.07-4.62.21Z" transform="translate(-5.79 -7.69)"/>
    <polygon class="cls-1" points="289.41 46.36 289.41 48.46 266.78 48.46 266.78 6.85 289.2 6.85 289.2 8.95 269.16 8.95 269.16 26.04 288.01 26.04 288.01 28.14 269.16 28.14 269.16 46.36 289.41 46.36"/>
    <path class="cls-1" d="M303.07,22a7.89,7.89,0,1,1,15.79,0,7.89,7.89,0,1,1-15.79,0m14.85,0A7,7,0,1,0,304,22a7,7,0,1,0,13.91,0M309.68,26h-1V17.85a9.75,9.75,0,0,1,1.88-.21c2,0,3.28.94,3.28,2.69a2.42,2.42,0,0,1-1.92,2.43L314.59,26h-1.32L310.84,23h-1.15Zm0-4h1c1.15,0,2.09-.55,2.09-1.75s-.81-1.71-2.17-1.71a6.45,6.45,0,0,0-.9.08Z" transform="translate(-5.79 -7.69)"/>
    <path class="cls-1" d="M133,30.15h2.36l-.05-.24C132.61,17.45,122.47,7.69,112.2,7.69h-8.33A2.82,2.82,0,0,0,101,10.51v4.75A21.48,21.48,0,0,0,85.8,34.64H83.91v2.31H85.8a21.43,21.43,0,0,0,42.8,0h1.89V34.64H128.6a21.48,21.48,0,0,0-15.25-19.38V10.06c8.63.72,17.23,9.44,19.62,20.09" transform="translate(-5.79 -7.69)"/>
    <path class="cls-1" d="M103.36,10.52a.52.52,0,0,1,.51-.51h7.18v4.71a21.18,21.18,0,0,0-7.7,0Z" transform="translate(-5.79 -7.69)"/>
    <path class="cls-1" d="M107.2,54.93a19.15,19.15,0,0,1-19.09-18h38.18a19.15,19.15,0,0,1-19.09,18" transform="translate(-5.79 -7.69)"/>
    <path class="cls-1" d="M126.29,34.64H88.11a19.13,19.13,0,0,1,38.18,0" transform="translate(-5.79 -7.69)"/>
  </g>
</svg>
